<svg width="24" height="24" viewBox="0 0 24 24" fill="none" xmlns="http://www.w3.org/2000/svg">
<path fill-rule="evenodd" clip-rule="evenodd" d="M13.0418 2.63625C12.4019 2.2456 11.5973 2.2456 10.9574 2.63625L4.84847 6.36588C3.55891 7.15317 3.57448 9.03115 4.87691 9.79696L11.0088 13.4024C11.636 13.7712 12.4138 13.7703 13.0401 13.4001L19.1334 9.79908C20.4324 9.03137 20.4458 7.15655 19.158 6.37028L13.0418 2.63625ZM19.6027 11.4709C20.0828 11.198 20.6933 11.3661 20.9662 11.8462C21.2195 12.2921 21.0927 12.8503 20.6889 13.1463L20.5908 13.2097L13.9962 16.9572C13.1665 17.4329 12.1538 17.4657 11.296 17.0535L11.1146 16.9584L4.59784 13.207C4.1192 12.9314 3.95454 12.3201 4.23007 11.8414C4.48592 11.397 5.03136 11.2232 5.4912 11.4213L5.59563 11.4736L12.109 15.2231C12.3493 15.3601 12.6424 15.377 12.8979 15.2725L13.0048 15.2202L19.6027 11.4709ZM19.5057 15.1307C19.9859 14.8579 20.5963 15.0259 20.8692 15.5061C21.1226 15.952 20.9958 16.5102 20.5919 16.8061L20.4938 16.8696L13.8993 20.617C13.0695 21.0928 12.0568 21.1255 11.199 20.7133L11.0177 20.6182L4.50088 16.8668C4.02224 16.5913 3.85758 15.9799 4.13311 15.5013C4.38896 15.0568 4.9344 14.8831 5.39424 15.0811L5.49867 15.1335L12.0121 18.8829C12.2524 19.02 12.5454 19.0369 12.8009 18.9323L12.9078 18.8801L19.5057 15.1307Z" fill="#7D8592"/>
</svg>
